# xmcd
#
# Track frame offsets:
#	150
#	21904
#	37427
#	50016
#	63735
#	72756
#	91405
#	103718
#	118204
#	131230
#	143833
#	156128
#	167779
#	180451
#	190909
#	209226
#	219610
#	229570
#	242990
#	262954
#
# Disc length: 3731 seconds
#
# Revision: 1
# Processed by: cddbd v1.5.2PL0 Copyright (c) Steve Scherf et al.
# Submitted via: audiograbber 1.83.01
#
DISCID=3d0e9114
DTITLE=Jonny Hill - 20 unvergessen Hits
DYEAR=1900
DGENRE=Country
TTITLE0=Ruf Teddybär 1-4
TTITLE1=Lucille
TTITLE2=500 Meilen von zuhaus
TTITLE3=Der Junge mit der Mundharmonika
TTITLE4=Ein Ring aus Feuer
TTITLE5=Sylvias Mutter
TTITLE6=Der Zug der Heimwärts geht
TTITLE7=In dem kleinen Haus am See
TTITLE8=Ich hab dich heute Nacht so sehr vermisst
TTITLE9=Freunde
TTITLE10=Bist du einsam heut Nacht
TTITLE11=Ich komm nicht los von dir
TTITLE12=Green Gras of home
TTITLE13=König der Landstraße
TTITLE14=Wann wird`s mal wieder richtig Sommer
TTITLE15=Heute Nacht da brauch ich dich
TTITLE16=Komm in meine Welt
TTITLE17=Ich wollt dir noch so viel sagen
TTITLE18=Dein erster Brief
TTITLE19=Rosen für Mama
EXTD=
EXTT0=
EXTT1=
EXTT2=
EXTT3=
EXTT4=
EXTT5=
EXTT6=
EXTT7=
EXTT8=
EXTT9=
EXTT10=
EXTT11=
EXTT12=
EXTT13=
EXTT14=
EXTT15=
EXTT16=
EXTT17=
EXTT18=
EXTT19=
PLAYORDER=
